<mxfile host="app.diagrams.net" agent="Mozilla/5.0 (X11; Linux x86_64) AppleWebKit/537.36 (KHTML, like Gecko) Chrome/137.0.0.0 Safari/537.36" version="27.1.6">
  <diagram name="Page-1" id="h5gkY6R-myXwpI1MZmGX">
    <mxGraphModel dx="1426" dy="871" grid="1" gridSize="10" guides="1" tooltips="1" connect="1" arrows="1" fold="1" page="1" pageScale="1" pageWidth="850" pageHeight="1100" math="0" shadow="0">
      <root>
        <mxCell id="0" />
        <mxCell id="1" parent="0" />
        <mxCell id="zDToEIYjcHqM0PLrVzrE-17" value="" style="rounded=1;whiteSpace=wrap;html=1;fillColor=#fff2cc;strokeColor=#d6b656;sketch=1;curveFitting=1;jiggle=2;" vertex="1" parent="1">
          <mxGeometry x="60" y="180" width="670" height="290" as="geometry" />
        </mxCell>
        <mxCell id="zDToEIYjcHqM0PLrVzrE-1" value="Microservice" style="rounded=1;whiteSpace=wrap;html=1;labelPosition=center;verticalLabelPosition=top;align=center;verticalAlign=bottom;fontStyle=1;fontSize=14;labelBorderColor=none;sketch=1;curveFitting=1;jiggle=2;glass=0;" vertex="1" parent="1">
          <mxGeometry x="100" y="220" width="160" height="220" as="geometry" />
        </mxCell>
        <mxCell id="zDToEIYjcHqM0PLrVzrE-2" value="DB" style="shape=cylinder3;whiteSpace=wrap;html=1;boundedLbl=1;backgroundOutline=1;size=15;fontStyle=1;fillColor=#e1d5e7;strokeColor=#9673a6;sketch=1;curveFitting=1;jiggle=2;" vertex="1" parent="1">
          <mxGeometry x="150" y="340" width="60" height="80" as="geometry" />
        </mxCell>
        <mxCell id="zDToEIYjcHqM0PLrVzrE-3" value="Service" style="shape=process;whiteSpace=wrap;html=1;backgroundOutline=1;fontStyle=1;fillColor=#e1d5e7;strokeColor=#9673a6;sketch=1;curveFitting=1;jiggle=2;" vertex="1" parent="1">
          <mxGeometry x="120" y="240" width="120" height="60" as="geometry" />
        </mxCell>
        <mxCell id="zDToEIYjcHqM0PLrVzrE-4" style="edgeStyle=orthogonalEdgeStyle;rounded=0;orthogonalLoop=1;jettySize=auto;html=1;entryX=0.5;entryY=0;entryDx=0;entryDy=0;entryPerimeter=0;fillColor=#d0cee2;strokeColor=#56517e;strokeWidth=2;sketch=1;curveFitting=1;jiggle=2;" edge="1" parent="1" source="zDToEIYjcHqM0PLrVzrE-3" target="zDToEIYjcHqM0PLrVzrE-2">
          <mxGeometry relative="1" as="geometry" />
        </mxCell>
        <mxCell id="zDToEIYjcHqM0PLrVzrE-5" value="Microservice" style="rounded=1;whiteSpace=wrap;html=1;labelPosition=center;verticalLabelPosition=top;align=center;verticalAlign=bottom;fontStyle=1;fontSize=14;sketch=1;curveFitting=1;jiggle=2;" vertex="1" parent="1">
          <mxGeometry x="320" y="220" width="160" height="220" as="geometry" />
        </mxCell>
        <mxCell id="zDToEIYjcHqM0PLrVzrE-6" value="DB" style="shape=cylinder3;whiteSpace=wrap;html=1;boundedLbl=1;backgroundOutline=1;size=15;fontStyle=1;fillColor=#e1d5e7;strokeColor=#9673a6;sketch=1;curveFitting=1;jiggle=2;" vertex="1" parent="1">
          <mxGeometry x="370" y="340" width="60" height="80" as="geometry" />
        </mxCell>
        <mxCell id="zDToEIYjcHqM0PLrVzrE-7" value="Service" style="shape=process;whiteSpace=wrap;html=1;backgroundOutline=1;fontStyle=1;fillColor=#e1d5e7;strokeColor=#9673a6;sketch=1;curveFitting=1;jiggle=2;" vertex="1" parent="1">
          <mxGeometry x="340" y="240" width="120" height="60" as="geometry" />
        </mxCell>
        <mxCell id="zDToEIYjcHqM0PLrVzrE-8" style="edgeStyle=orthogonalEdgeStyle;rounded=0;orthogonalLoop=1;jettySize=auto;html=1;entryX=0.5;entryY=0;entryDx=0;entryDy=0;entryPerimeter=0;fillColor=#d0cee2;strokeColor=#56517e;strokeWidth=2;sketch=1;curveFitting=1;jiggle=2;" edge="1" source="zDToEIYjcHqM0PLrVzrE-7" target="zDToEIYjcHqM0PLrVzrE-6" parent="1">
          <mxGeometry relative="1" as="geometry" />
        </mxCell>
        <mxCell id="zDToEIYjcHqM0PLrVzrE-13" value="Microservice" style="rounded=1;whiteSpace=wrap;html=1;labelPosition=center;verticalLabelPosition=top;align=center;verticalAlign=bottom;fontStyle=1;fontSize=14;glass=0;sketch=1;curveFitting=1;jiggle=2;" vertex="1" parent="1">
          <mxGeometry x="540" y="220" width="160" height="220" as="geometry" />
        </mxCell>
        <mxCell id="zDToEIYjcHqM0PLrVzrE-14" value="DB" style="shape=cylinder3;whiteSpace=wrap;html=1;boundedLbl=1;backgroundOutline=1;size=15;fontStyle=1;fillColor=#e1d5e7;strokeColor=#9673a6;sketch=1;curveFitting=1;jiggle=2;" vertex="1" parent="1">
          <mxGeometry x="590" y="340" width="60" height="80" as="geometry" />
        </mxCell>
        <mxCell id="zDToEIYjcHqM0PLrVzrE-15" value="Service" style="shape=process;whiteSpace=wrap;html=1;backgroundOutline=1;fontStyle=1;fillColor=#e1d5e7;strokeColor=#9673a6;sketch=1;curveFitting=1;jiggle=2;" vertex="1" parent="1">
          <mxGeometry x="560" y="240" width="120" height="60" as="geometry" />
        </mxCell>
        <mxCell id="zDToEIYjcHqM0PLrVzrE-16" style="edgeStyle=orthogonalEdgeStyle;rounded=0;orthogonalLoop=1;jettySize=auto;html=1;entryX=0.5;entryY=0;entryDx=0;entryDy=0;entryPerimeter=0;fillColor=#d0cee2;strokeColor=#56517e;strokeWidth=2;sketch=1;curveFitting=1;jiggle=2;" edge="1" source="zDToEIYjcHqM0PLrVzrE-15" target="zDToEIYjcHqM0PLrVzrE-14" parent="1">
          <mxGeometry relative="1" as="geometry" />
        </mxCell>
        <mxCell id="zDToEIYjcHqM0PLrVzrE-35" style="rounded=0;orthogonalLoop=1;jettySize=auto;html=1;entryX=0.75;entryY=0;entryDx=0;entryDy=0;strokeWidth=1;fillColor=#1ba1e2;strokeColor=#006EAF;sketch=1;curveFitting=1;jiggle=2;flowAnimation=0;" edge="1" parent="1" source="zDToEIYjcHqM0PLrVzrE-30" target="zDToEIYjcHqM0PLrVzrE-5">
          <mxGeometry relative="1" as="geometry" />
        </mxCell>
        <mxCell id="zDToEIYjcHqM0PLrVzrE-36" style="rounded=0;orthogonalLoop=1;jettySize=auto;html=1;entryX=0.5;entryY=0;entryDx=0;entryDy=0;strokeWidth=1;fillColor=#1ba1e2;strokeColor=#006EAF;sketch=1;curveFitting=1;jiggle=2;flowAnimation=0;fontSize=11;" edge="1" parent="1" source="zDToEIYjcHqM0PLrVzrE-30" target="zDToEIYjcHqM0PLrVzrE-13">
          <mxGeometry relative="1" as="geometry" />
        </mxCell>
        <mxCell id="zDToEIYjcHqM0PLrVzrE-30" value="Mobile" style="outlineConnect=0;dashed=0;verticalLabelPosition=bottom;verticalAlign=top;align=center;html=1;shape=mxgraph.aws3.mobile_client;fillColor=#0050ef;fontColor=default;strokeColor=#001DBC;fontStyle=1;shadow=0;sketch=1;curveFitting=1;jiggle=2;" vertex="1" parent="1">
          <mxGeometry x="499.5" y="70" width="40.5" height="63" as="geometry" />
        </mxCell>
        <mxCell id="zDToEIYjcHqM0PLrVzrE-33" style="rounded=0;orthogonalLoop=1;jettySize=auto;html=1;entryX=0.75;entryY=0;entryDx=0;entryDy=0;fillColor=#1ba1e2;strokeColor=#006EAF;strokeWidth=1;sketch=1;curveFitting=1;jiggle=2;flowAnimation=0;" edge="1" parent="1" source="zDToEIYjcHqM0PLrVzrE-31" target="zDToEIYjcHqM0PLrVzrE-1">
          <mxGeometry relative="1" as="geometry" />
        </mxCell>
        <mxCell id="zDToEIYjcHqM0PLrVzrE-34" style="rounded=0;orthogonalLoop=1;jettySize=auto;html=1;entryX=0.25;entryY=0;entryDx=0;entryDy=0;fillColor=#1ba1e2;strokeColor=#006EAF;strokeWidth=1;sketch=1;curveFitting=1;jiggle=2;flowAnimation=0;" edge="1" parent="1" source="zDToEIYjcHqM0PLrVzrE-31" target="zDToEIYjcHqM0PLrVzrE-5">
          <mxGeometry relative="1" as="geometry" />
        </mxCell>
        <mxCell id="zDToEIYjcHqM0PLrVzrE-31" value="Web" style="outlineConnect=0;dashed=0;verticalLabelPosition=bottom;verticalAlign=top;align=center;html=1;shape=mxgraph.aws3.management_console;fillColor=#0050ef;strokeColor=#001DBC;fontColor=default;labelPosition=center;fontStyle=1;fontSize=12;shadow=0;sketch=1;curveFitting=1;jiggle=2;" vertex="1" parent="1">
          <mxGeometry x="260" y="70" width="63" height="63" as="geometry" />
        </mxCell>
      </root>
    </mxGraphModel>
  </diagram>
</mxfile>
